<?xml version="1.0" encoding="utf-8"?>
<!-- Generator: Adobe Illustrator 27.0.1, SVG Export Plug-In . SVG Version: 6.00 Build 0)  -->
<svg version="1.1" id="Layer_1" xmlns="http://www.w3.org/2000/svg" xmlns:xlink="http://www.w3.org/1999/xlink" x="0px" y="0px"
	 viewBox="0 0 504.8 95.4" style="enable-background:new 0 0 504.8 95.4;" xml:space="preserve">
<style type="text/css">
	.st0{fill:url(#SVGID_1_);}
	.st1{fill:url(#SVGID_00000170236700350962069430000007483300321235033487_);}
	.st2{fill:url(#SVGID_00000029007756206793900420000005098712941068038829_);}
	.st3{fill:url(#SVGID_00000058576659527528325570000014840445341661344443_);}
	.st4{fill:#FFFFFF;}
	.st5{fill-rule:evenodd;clip-rule:evenodd;fill:#FFFFFF;}
</style>
<g>
	<g>
		
			<linearGradient id="SVGID_1_" gradientUnits="userSpaceOnUse" x1="341.7898" y1="48.8422" x2="342.1557" y2="48.8422" gradientTransform="matrix(1 0 0 -1 0 98)">
			<stop  offset="0" style="stop-color:#0058A9"/>
			<stop  offset="1" style="stop-color:#00B8B0"/>
		</linearGradient>
		<path class="st0" d="M156,17.3H185c18.5,0,35.8,9.8,35.8,31.5c0,19.2-14.2,32.2-35.5,32.2H156V17.3L156,17.3z M182.4,74.5
			c19.9,0,30.4-9.2,30.4-25.7c0-14.8-9.6-24.9-30.5-24.9H164v50.6H182.4z M168.1,27.5h14.1c18.2,0,26.3,7.6,26.3,21.5
			s-8.8,22-26.3,22h-14.1C168.1,70.9,168.1,27.5,168.1,27.5z M183.3,64.3c12.1,0,17.1-5,17.1-15.4c0-9.6-4.8-14.8-17.1-14.8h-7.3
			v30.2H183.3L183.3,64.3z"/>
		
			<linearGradient id="SVGID_00000066514120983509282060000014582061359311298985_" gradientUnits="userSpaceOnUse" x1="341.7898" y1="48.8422" x2="342.1557" y2="48.8422" gradientTransform="matrix(1 0 0 -1 0 98)">
			<stop  offset="0" style="stop-color:#0058A9"/>
			<stop  offset="1" style="stop-color:#00B8B0"/>
		</linearGradient>
		<path style="fill:url(#SVGID_00000066514120983509282060000014582061359311298985_);" d="M229.3,17.3h29.6
			c15.8,0,24.9,9.2,24.9,22.2c0,14.9-9.6,23.1-26.3,23.1h-8.1V81h-7.9V56.1h14.7c13.1,0,19.6-5.7,19.6-16.6
			c0-9.6-6.2-15.6-18.8-15.6h-19.6V81h-8V17.3z M241.4,27.5h14.3c10.7,0,15.9,4,15.9,12.5s-5,12.4-15.9,12.4h-14.3V27.5z
			 M255.3,45.9c6.7,0,8.3-2.2,8.3-6c0-3.7-2-5.9-8.3-5.9h-5.9v11.9H255.3z"/>
		
			<linearGradient id="SVGID_00000058570406128245489250000009499390167406564271_" gradientUnits="userSpaceOnUse" x1="341.7898" y1="48.8422" x2="342.1557" y2="48.8422" gradientTransform="matrix(1 0 0 -1 0 98)">
			<stop  offset="0" style="stop-color:#0058A9"/>
			<stop  offset="1" style="stop-color:#00B8B0"/>
		</linearGradient>
		<path style="fill:url(#SVGID_00000058570406128245489250000009499390167406564271_);" d="M292.4,17.3h45.5v6.5h-37.5v50.6h37.9V81
			h-46V17.3z M304.5,27.5h33.4v6.6h-25.4v6.4H336V47h-31.5V27.5z M304.5,50.7H336v6.6h-23.5v6.9h25.9v6.5h-33.8
			C304.5,70.8,304.5,50.7,304.5,50.7z"/>
		
			<linearGradient id="SVGID_00000138539028153640644220000015579676779277995407_" gradientUnits="userSpaceOnUse" x1="341.7898" y1="48.8422" x2="342.1557" y2="48.8422" gradientTransform="matrix(1 0 0 -1 0 98)">
			<stop  offset="0" style="stop-color:#0058A9"/>
			<stop  offset="1" style="stop-color:#00B8B0"/>
		</linearGradient>
		<path style="fill:url(#SVGID_00000138539028153640644220000015579676779277995407_);" d="M372,48l-26.8-30.7h8.8l27,30.7l-29,33
			h-8.8L372,48L372,48z M383.1,50.8L409.6,81h-8.8l-17.8-20.8L365.2,81h-8.7L383.1,50.8z M358.5,17.3h8.8L383,36.1l16-18.8h8.8
			l-24.7,28.2L358.5,17.3z M385.3,48l26.9-30.7h8.8L394.1,48l28.7,33H414C414,81,385.3,48,385.3,48z"/>
	</g>
	<g>
		<path class="st4" d="M156,17.3H185c18.5,0,35.8,9.8,35.8,31.5c0,19.2-14.2,32.2-35.5,32.2H156V17.3L156,17.3z M182.4,74.5
			c19.9,0,30.4-9.2,30.4-25.7c0-14.8-9.6-24.9-30.5-24.9H164v50.6H182.4z M168.1,27.5h14.1c18.2,0,26.3,7.6,26.3,21.5
			s-8.8,22-26.3,22h-14.1C168.1,70.9,168.1,27.5,168.1,27.5z M183.3,64.3c12.1,0,17.1-5,17.1-15.4c0-9.6-4.8-14.8-17.1-14.8h-7.3
			v30.2H183.3L183.3,64.3z"/>
		<path class="st4" d="M229.3,17.3h29.6c15.8,0,24.9,9.2,24.9,22.2c0,14.9-9.6,23.1-26.3,23.1h-8.1V81h-7.9V56.1h14.7
			c13.1,0,19.6-5.7,19.6-16.6c0-9.6-6.2-15.6-18.8-15.6h-19.6V81h-8V17.3z M241.4,27.5h14.3c10.7,0,15.9,4,15.9,12.5
			s-5,12.4-15.9,12.4h-14.3V27.5z M255.3,45.9c6.7,0,8.3-2.2,8.3-6c0-3.7-2-5.9-8.3-5.9h-5.9v11.9H255.3z"/>
		<path class="st4" d="M292.4,17.3h45.5v6.5h-37.5v50.6h37.9V81h-46V17.3z M304.5,27.5h33.4v6.6h-25.4v6.4H336V47h-31.5V27.5z
			 M304.5,50.7H336v6.6h-23.5v6.9h25.9v6.5h-33.8C304.5,70.8,304.5,50.7,304.5,50.7z"/>
		<path class="st4" d="M372,48l-26.8-30.7h8.8l27,30.7l-29,33h-8.8L372,48L372,48z M383.1,50.8L409.6,81h-8.8l-17.8-20.8L365.2,81
			h-8.7L383.1,50.8z M358.5,17.3h8.8L383,36.1l16-18.8h8.8l-24.7,28.2L358.5,17.3z M385.3,48l26.9-30.7h8.8L394.1,48l28.7,33H414
			C414,81,385.3,48,385.3,48z"/>
	</g>
</g>
<g>
	<g>
		<path class="st5" d="M65.3,11c32.1,8.3,49.7,14.8,51.8,24.3c0-1.6,0.1-3.5,0-5.1c-0.3-3.1-2-5.9-4.7-7.5L83.4,6.1
			c-2.9-1.7-6.6-1.7-9.6,0L65.3,11z"/>
		<path class="st5" d="M117.1,53.2c2.2-19.6-10.1-23.4-34.1-30C65.1,18.3,37.4,11.8,21.9,7.9C23.1,17.4,32.1,25,41,27.1
			C62.3,32,110.3,37.1,117.1,53.2z"/>
		<path class="st5" d="M80.7,61c-15.3-3-30.8-4.7-46-6.5c2,6.3,5.4,13.4,19.7,14.9c12.1,1.3,43.3,4.2,45.8,10.3
			C115.3,69.9,90.2,62.9,80.7,61z"/>
		<path class="st5" d="M95.1,82.6c0.2-4.2-31.2-6.7-45-7l23.8,13.7c2.9,1.7,6.6,1.8,9.6,0L95.1,82.6z"/>
		<path class="st5" d="M111.9,72.9c0.5-8.6-13.8-12.6-24.3-15.5c-13.1-3.7-30.5-7-42.2-9.1C35,46.4,28.6,39.4,24.8,29.7
			c7.8,1.7,15.5,3.4,23.3,4.9c8.7,1.6,24.3,5,33.5,7.1c13.9,3.3,25.9,7.3,31.7,13.6C118.8,61.2,118.5,68.2,111.9,72.9z"/>
	</g>
</g>
</svg>
